<svg xmlns="http://www.w3.org/2000/svg" viewBox="0 0 1600 900" role="img" aria-labelledby="title desc">
  <title id="title">POKÉGRID — Field Research System</title>
  <desc id="desc">Capa gráfica do projeto POKÉGRID com tipografia editorial e verde ácido.</desc>
  <rect width="1600" height="900" fill="#efede5"/>
  <rect x="920" width="680" height="900" fill="#c9ff22"/>
  <rect x="64" y="54" width="42" height="42" fill="#11110f"/>
  <text x="85" y="82" text-anchor="middle" font-family="monospace" font-size="14" font-weight="700" fill="#c9ff22">PG</text>
  <text x="122" y="81" font-family="monospace" font-size="16" letter-spacing="4" font-weight="700" fill="#11110f">POKÉGRID</text>
  <line x1="64" y1="116" x2="1536" y2="116" stroke="#11110f" stroke-width="1"/>
  <text x="150" y="220" font-family="monospace" font-size="15" letter-spacing="5" font-weight="700" fill="#11110f">FIELD RESEARCH SYSTEM / REV. 01</text>
  <text x="145" y="365" font-family="Arial, Helvetica, sans-serif" font-size="142" font-weight="900" letter-spacing="-10" fill="#11110f">READ THE</text>
  <text x="145" y="520" font-family="Arial, Helvetica, sans-serif" font-size="142" font-weight="900" letter-spacing="-10" fill="none" stroke="#11110f" stroke-width="2">SIGNAL.</text>
  <text x="150" y="650" font-family="Georgia, serif" font-size="34" fill="#11110f">Pokémon data, team analysis, move coverage</text>
  <text x="150" y="695" font-family="Georgia, serif" font-size="34" fill="#11110f">and comparison in one desktop research interface.</text>
  <text x="962" y="190" font-family="monospace" font-size="15" letter-spacing="4" font-weight="700" fill="#11110f">ACTIVE SYSTEM</text>
  <text x="962" y="350" font-family="Arial, Helvetica, sans-serif" font-size="210" font-weight="900" letter-spacing="-14" fill="#11110f" opacity=".08">013</text>
  <g fill="none" stroke="#11110f" stroke-width="3">
    <rect x="965" y="405" width="520" height="195"/>
    <line x1="965" y1="470" x2="1485" y2="470"/>
    <line x1="1140" y1="405" x2="1140" y2="600"/>
    <line x1="1315" y1="405" x2="1315" y2="600"/>
  </g>
  <g font-family="monospace" font-size="18" font-weight="700" fill="#11110f">
    <text x="985" y="445">TEAM LAB</text>
    <text x="1160" y="445">FAVORITES</text>
    <text x="1335" y="445">MOVES</text>
    <text x="985" y="530">06 MAX</text>
    <text x="1160" y="530">LOCAL</text>
    <text x="1335" y="530">04 / MON</text>
  </g>
  <line x1="965" y1="675" x2="1485" y2="675" stroke="#11110f" stroke-width="14"/>
  <line x1="965" y1="720" x2="1370" y2="720" stroke="#11110f" stroke-width="14"/>
  <line x1="965" y1="765" x2="1265" y2="765" stroke="#11110f" stroke-width="14"/>
  <text x="965" y="835" font-family="monospace" font-size="14" letter-spacing="3" font-weight="700" fill="#11110f">ELECTRON / NODE.JS / POKÉAPI</text>
</svg>